<?xml version="1.0" standalone="no"?>
<!DOCTYPE svg PUBLIC "-//W3C//DTD SVG 20010904//EN"
 "http://www.w3.org/TR/2001/REC-SVG-20010904/DTD/svg10.dtd">
<svg version="1.0" xmlns="http://www.w3.org/2000/svg"
 width="16.000000pt" height="16.000000pt" viewBox="0 0 16.000000 16.000000"
 preserveAspectRatio="xMidYMid meet">
<metadata>
Created by potrace 1.11, written by Peter Selinger 2001-2013
</metadata>
<g transform="translate(0.000000,16.000000) scale(0.001852,-0.001852)"
fill="#000000" stroke="none">
<path d="M2130 7539 c0 -5 5 -7 10 -4 6 3 10 8 10 11 0 2 -4 4 -10 4 -5 0 -10
-5 -10 -11z"/>
<path d="M1910 7369 c0 -5 5 -7 10 -4 6 3 10 8 10 11 0 2 -4 4 -10 4 -5 0 -10
-5 -10 -11z"/>
<path d="M1640 7159 c0 -5 5 -7 10 -4 6 3 10 8 10 11 0 2 -4 4 -10 4 -5 0 -10
-5 -10 -11z"/>
<path d="M6970 7166 c0 -2 7 -9 15 -16 12 -10 15 -10 15 4 0 9 -7 16 -15 16
-8 0 -15 -2 -15 -4z"/>
<path d="M7020 7106 c0 -17 27 -29 35 -16 4 6 3 15 0 20 -9 15 -35 12 -35 -4z"/>
<path d="M1590 7094 c0 -14 3 -14 15 -4 8 7 15 14 15 16 0 2 -7 4 -15 4 -8 0
-15 -7 -15 -16z"/>
<path d="M7074 7055 c3 -9 6 -19 6 -21 0 -2 7 -4 16 -4 22 0 13 34 -10 38 -14
3 -17 0 -12 -13z"/>
<path d="M1540 7050 c0 -5 4 -10 9 -10 6 0 13 5 16 10 3 6 -1 10 -9 10 -9 0
-16 -4 -16 -10z"/>
<path d="M1480 6988 c0 -20 1 -21 20 -3 11 10 20 20 20 22 0 1 -9 3 -20 3 -14
0 -20 -7 -20 -22z"/>
<path d="M7120 7002 c0 -12 23 -32 37 -32 7 0 13 9 13 20 0 15 -7 20 -25 20
-14 0 -25 -4 -25 -8z"/>
<path d="M7191 6951 c-12 -8 -7 -17 24 -48 21 -21 39 -46 40 -55 2 -20 12 -34
20 -27 2 3 2 22 -2 42 -4 26 -11 37 -23 37 -20 0 -36 17 -41 42 -3 12 -8 15
-18 9z"/>
<path d="M1364 6849 c-3 -6 -1 -16 5 -22 9 -9 14 -8 21 3 9 15 4 30 -10 30 -5
0 -12 -5 -16 -11z"/>
<path d="M7290 6801 c0 -21 13 -41 26 -41 8 0 14 10 14 25 0 18 -5 25 -20 25
-11 0 -20 -4 -20 -9z"/>
<path d="M1310 6780 c0 -13 7 -20 20 -20 13 0 20 7 20 20 0 13 -7 20 -20 20
-13 0 -20 -7 -20 -20z"/>
<path d="M7345 6750 c-11 -18 6 -50 26 -50 12 0 19 -7 19 -20 0 -11 14 -35 31
-52 17 -18 33 -45 36 -59 3 -15 13 -29 23 -32 9 -2 20 -17 23 -33 3 -16 17
-41 31 -56 15 -15 26 -37 26 -48 0 -13 8 -24 18 -27 16 -4 42 -63 42 -98 0 -8
6 -15 14 -15 8 0 19 -20 27 -47 7 -27 20 -53 30 -60 9 -7 22 -33 28 -58 6 -25
15 -45 20 -45 11 0 28 -45 36 -97 4 -22 15 -49 26 -58 10 -10 21 -34 24 -54
11 -71 28 -136 40 -148 7 -7 16 -40 20 -73 4 -33 11 -60 16 -60 5 0 9 -9 9
-19 0 -11 4 -22 8 -25 5 -3 12 -61 16 -128 4 -68 11 -127 16 -132 6 -6 10 -20
10 -33 0 -13 4 -23 8 -23 5 0 13 -120 20 -267 9 -221 9 -279 -3 -333 -7 -36
-16 -128 -20 -205 -3 -77 -10 -167 -15 -200 -4 -33 -11 -90 -15 -127 -4 -38
-11 -68 -16 -68 -5 0 -9 -11 -9 -25 0 -14 -4 -25 -10 -25 -5 0 -10 -24 -10
-52 -1 -64 -24 -178 -38 -187 -6 -3 -14 -46 -18 -95 -6 -72 -10 -89 -25 -93
-11 -3 -19 -18 -23 -46 -12 -95 -18 -116 -36 -122 -12 -4 -19 -19 -23 -52 -3
-26 -10 -49 -16 -51 -6 -2 -11 -10 -11 -18 0 -8 -4 -14 -9 -14 -5 0 -11 -15
-14 -32 -15 -83 -20 -98 -38 -103 -12 -4 -19 -16 -19 -33 0 -45 -11 -72 -29
-72 -12 0 -21 -15 -31 -50 -8 -28 -19 -50 -27 -50 -8 0 -13 -12 -13 -30 0 -16
-4 -30 -10 -30 -5 0 -10 -6 -10 -13 0 -7 -9 -19 -20 -27 -11 -8 -20 -25 -20
-38 0 -12 -11 -33 -25 -46 -14 -13 -25 -27 -25 -31 0 -4 -13 -20 -30 -35 -16
-15 -30 -38 -30 -50 0 -13 -13 -36 -30 -52 -20 -19 -30 -38 -30 -58 0 -23 -4
-30 -20 -30 -12 0 -25 -10 -32 -25 -6 -13 -19 -27 -30 -30 -10 -4 -18 -15 -18
-25 0 -10 -8 -25 -18 -32 -10 -7 -27 -28 -37 -45 -11 -18 -27 -33 -37 -33 -12
0 -18 -8 -18 -23 0 -22 -31 -57 -50 -57 -6 0 -10 -11 -10 -25 0 -15 -6 -25
-15 -25 -8 0 -21 -13 -30 -29 -8 -16 -24 -32 -34 -36 -11 -3 -21 -16 -23 -28
-2 -14 -11 -23 -25 -25 -13 -2 -25 -14 -32 -33 -6 -18 -17 -29 -29 -29 -11 0
-22 -9 -25 -19 -2 -11 -15 -21 -28 -23 -16 -2 -25 -11 -27 -25 -2 -12 -11 -25
-21 -28 -10 -3 -23 -16 -29 -29 -6 -14 -21 -26 -34 -28 -15 -2 -24 -11 -26
-25 -2 -15 -10 -23 -23 -23 -11 0 -22 -7 -25 -15 -4 -8 -11 -15 -18 -15 -6 0
-18 -9 -26 -21 -32 -46 -49 -59 -78 -65 -17 -4 -34 -14 -37 -24 -3 -10 -17
-21 -30 -24 -13 -3 -27 -15 -30 -26 -3 -11 -15 -20 -25 -20 -10 0 -28 -13 -41
-30 -14 -17 -37 -32 -56 -36 -19 -4 -35 -14 -38 -25 -4 -11 -16 -19 -28 -19
-13 0 -30 -8 -39 -17 -30 -32 -47 -43 -68 -43 -11 0 -29 -8 -39 -18 -40 -35
-51 -42 -70 -42 -11 0 -22 -9 -26 -20 -5 -17 -57 -40 -90 -40 -6 0 -16 -9 -22
-19 -8 -13 -29 -22 -58 -26 -25 -4 -45 -11 -45 -16 0 -5 -7 -9 -15 -9 -8 0
-15 -4 -15 -8 0 -5 -18 -15 -40 -22 -22 -7 -40 -17 -40 -22 0 -4 -7 -8 -15 -8
-8 0 -15 -4 -15 -10 0 -5 -18 -10 -40 -10 -22 0 -40 -4 -40 -9 0 -5 -13 -12
-30 -16 -16 -4 -30 -10 -30 -15 0 -4 -22 -11 -50 -15 -27 -4 -50 -11 -50 -16
0 -5 -13 -9 -30 -9 -16 0 -30 -4 -30 -9 0 -5 -36 -14 -80 -21 -44 -7 -80 -16
-80 -21 0 -5 -11 -9 -24 -9 -13 0 -26 -6 -28 -12 -3 -9 -37 -14 -111 -16 -59
-2 -107 -8 -107 -13 0 -5 -11 -9 -25 -9 -14 0 -25 -4 -25 -9 0 -13 -165 -21
-460 -21 -362 1 -453 4 -458 18 -2 7 -26 12 -58 12 -30 0 -54 4 -54 9 0 5 -41
11 -92 13 -61 2 -93 7 -96 16 -2 6 -10 12 -18 12 -8 0 -14 5 -14 10 0 6 -22
10 -49 10 -28 0 -53 5 -56 10 -3 6 -17 10 -31 10 -13 0 -24 5 -24 10 0 6 -11
10 -25 10 -14 0 -25 5 -25 10 0 6 -20 10 -44 10 -26 0 -51 6 -60 15 -8 8 -24
15 -35 15 -12 0 -21 4 -21 9 0 5 -25 12 -55 16 -30 3 -55 11 -55 16 0 5 -11 9
-24 9 -13 0 -26 6 -29 14 -3 7 -23 16 -44 19 -21 4 -45 15 -53 27 -8 11 -24
20 -36 20 -13 0 -29 7 -38 15 -8 8 -22 15 -30 15 -9 0 -16 4 -16 8 0 4 -16 14
-35 21 -19 7 -35 17 -35 22 0 5 -9 9 -19 9 -11 0 -21 4 -23 10 -1 5 -15 11
-30 12 -15 1 -26 5 -25 9 5 16 -48 49 -80 49 -20 0 -33 5 -33 13 0 7 -17 21
-37 32 -21 11 -45 27 -53 36 -8 9 -25 19 -37 23 -12 4 -25 16 -28 27 -4 10
-15 19 -26 19 -10 0 -19 5 -19 10 0 6 -8 10 -18 10 -10 0 -24 9 -32 20 -8 11
-20 20 -27 20 -7 0 -13 5 -13 11 0 17 -40 49 -61 49 -10 0 -21 9 -24 20 -3 11
-15 20 -26 20 -10 0 -19 4 -19 8 0 12 -35 52 -45 52 -9 0 -16 6 -86 75 -26 25
-50 45 -54 45 -10 0 -35 27 -35 39 0 6 -7 11 -15 11 -8 0 -22 12 -32 28 -23
35 -39 52 -51 52 -6 0 -12 7 -16 15 -3 8 -15 15 -26 15 -13 0 -20 7 -20 18 0
22 -32 62 -48 62 -7 0 -14 10 -17 23 -4 13 -17 31 -31 41 -13 11 -24 24 -24
31 0 7 -11 20 -25 29 -14 9 -25 25 -25 36 0 13 -7 20 -19 20 -12 0 -21 9 -25
26 -4 16 -18 30 -36 37 -21 8 -30 18 -30 34 0 16 -6 23 -20 23 -14 0 -21 9
-26 36 -3 19 -17 45 -29 57 -13 12 -25 31 -27 42 -2 11 -12 21 -25 23 -16 2
-23 12 -28 40 -4 24 -16 45 -35 61 -17 13 -30 32 -30 42 0 12 -7 19 -20 19
-16 0 -21 9 -26 50 -5 40 -10 50 -25 50 -12 0 -19 7 -19 19 0 11 -4 23 -10 26
-5 3 -10 19 -10 36 0 22 -5 29 -20 29 -15 0 -20 7 -20 28 0 26 -7 39 -50 89
-5 7 -10 26 -10 43 0 16 -4 30 -10 30 -5 0 -10 7 -10 15 0 8 -4 15 -9 15 -8 0
-12 11 -26 63 -2 4 -3 16 -4 27 -1 12 -8 20 -20 20 -14 0 -20 10 -25 46 -3 26
-6 62 -6 80 0 27 -4 34 -19 34 -20 0 -28 23 -38 112 -4 35 -10 49 -24 53 -15
5 -19 16 -19 49 0 24 -3 71 -6 105 -6 49 -10 61 -25 61 -15 0 -18 14 -24 110
-4 61 -11 110 -16 110 -5 0 -9 11 -9 25 0 14 -4 25 -8 25 -8 0 -29 188 -37
330 -2 36 -7 83 -10 105 -4 22 -9 145 -11 274 -4 202 -2 247 15 340 10 58 22
142 25 186 8 106 27 215 38 215 4 0 8 17 8 38 1 42 18 124 28 132 12 9 32 75
32 108 0 18 4 40 9 50 5 9 12 24 16 32 3 8 12 26 20 40 8 14 15 40 15 58 0 25
5 35 20 39 14 4 21 17 26 50 3 24 12 50 18 56 26 30 42 59 50 98 3 14 15 36
26 49 11 13 20 30 20 38 0 8 11 27 25 44 14 16 25 38 25 48 0 11 11 29 24 42
21 21 42 71 38 91 -1 4 7 7 18 7 24 0 40 48 20 60 -20 13 -40 0 -40 -25 0 -17
-7 -25 -22 -27 -17 -2 -25 -13 -31 -41 -5 -20 -17 -42 -27 -47 -10 -5 -21 -24
-25 -41 -4 -19 -16 -34 -31 -39 -19 -8 -24 -17 -24 -45 0 -29 -5 -37 -25 -45
-16 -6 -25 -17 -25 -30 0 -28 -26 -76 -45 -83 -9 -4 -15 -19 -15 -38 0 -21 -6
-32 -18 -36 -11 -3 -23 -22 -31 -51 -8 -26 -19 -51 -26 -57 -11 -10 -27 -52
-39 -107 -3 -15 -15 -30 -26 -33 -16 -5 -20 -15 -20 -56 0 -43 -3 -51 -24 -59
-20 -7 -25 -18 -31 -69 -5 -43 -14 -67 -31 -86 -19 -21 -24 -37 -24 -80 0 -61
-7 -85 -24 -85 -14 0 -36 -97 -36 -159 0 -30 -6 -48 -19 -59 -16 -14 -21 -40
-30 -142 -6 -69 -15 -126 -21 -128 -5 -2 -10 -14 -10 -26 0 -12 -5 -27 -12
-34 -18 -18 -17 -1018 1 -1092 8 -30 17 -57 21 -60 4 -3 12 -59 19 -125 8 -86
17 -127 30 -145 12 -17 20 -50 23 -104 3 -51 10 -83 19 -90 24 -18 39 -64 39
-116 0 -28 4 -50 8 -50 13 0 40 -68 47 -117 4 -27 12 -43 20 -43 13 0 26 -32
39 -101 3 -14 14 -36 25 -48 11 -13 23 -42 27 -66 4 -29 12 -45 24 -48 11 -3
19 -18 23 -48 4 -27 13 -49 27 -59 14 -10 23 -32 27 -59 4 -31 11 -45 24 -48
12 -3 23 -21 29 -44 6 -22 21 -46 35 -55 17 -11 25 -26 25 -45 0 -22 5 -29 20
-29 11 0 20 -6 20 -12 0 -7 5 -30 11 -51 7 -26 15 -37 29 -37 15 0 20 -7 20
-26 0 -17 6 -28 19 -31 20 -5 41 -42 41 -72 0 -10 11 -23 25 -29 15 -7 25 -20
25 -32 0 -13 9 -22 25 -26 14 -3 25 -12 25 -20 0 -8 11 -24 25 -36 14 -12 25
-27 25 -34 0 -6 13 -26 29 -43 17 -18 33 -41 36 -52 4 -11 18 -24 31 -29 14
-6 24 -18 24 -30 0 -13 7 -20 19 -20 12 0 23 -11 29 -29 7 -19 18 -31 34 -33
15 -2 24 -11 26 -25 2 -14 11 -23 25 -25 14 -2 23 -11 25 -25 2 -14 11 -23 25
-25 14 -2 23 -11 25 -26 2 -16 14 -27 33 -34 18 -6 29 -17 29 -29 0 -12 7 -19
20 -19 13 0 24 -10 30 -25 5 -14 20 -27 35 -31 14 -3 25 -12 25 -20 0 -7 17
-21 37 -31 21 -9 48 -28 61 -40 13 -13 29 -23 36 -23 8 0 17 -11 20 -25 4 -16
13 -25 26 -25 12 0 25 -10 32 -25 7 -16 19 -25 34 -25 12 0 36 -13 52 -30 17
-16 40 -30 51 -30 14 0 21 -6 21 -20 0 -14 11 -22 38 -29 20 -6 43 -11 50 -11
6 0 12 -9 12 -20 0 -14 7 -20 23 -20 27 0 41 -10 49 -31 4 -9 26 -22 51 -28
28 -8 47 -20 50 -31 3 -12 19 -19 51 -24 25 -4 46 -11 46 -16 0 -20 34 -40 70
-40 29 0 40 -5 45 -19 4 -14 22 -23 60 -32 30 -7 55 -18 55 -25 0 -14 22 -24
55 -24 30 0 75 -19 97 -41 9 -9 40 -20 67 -24 28 -4 51 -10 51 -15 0 -12 49
-28 107 -35 29 -4 55 -11 58 -15 14 -22 73 -40 131 -40 50 0 67 -4 82 -20 15
-16 40 -22 133 -31 76 -7 126 -17 150 -30 28 -14 58 -19 125 -20 49 0 172 -6
274 -13 102 -7 220 -12 262 -10 69 2 375 18 536 28 36 2 70 10 80 19 11 9 59
18 136 26 101 9 121 14 133 31 12 17 25 20 84 20 62 0 104 11 120 33 8 11 70
27 106 27 40 0 63 9 63 25 0 7 21 15 52 19 33 5 66 17 87 33 22 17 51 28 82
31 36 3 48 9 52 23 3 11 13 19 24 19 41 0 91 21 96 40 4 16 14 20 45 20 32 0
44 5 59 26 13 18 31 27 61 31 30 4 42 10 42 23 0 11 15 20 49 30 30 8 51 20
54 30 2 10 17 20 33 24 16 4 39 16 50 27 12 11 34 23 50 28 19 5 30 15 32 29
2 16 10 22 28 22 14 0 39 13 57 30 18 16 42 30 55 30 14 0 22 6 22 18 0 10 12
22 30 29 17 6 30 18 30 26 0 8 20 25 45 37 25 12 45 26 45 31 0 6 14 15 30 20
19 7 30 18 30 30 0 14 7 19 26 19 19 0 28 7 35 30 7 19 18 30 29 30 10 0 22 9
25 20 3 11 17 23 31 26 17 4 24 13 24 29 0 16 7 25 24 29 14 3 27 15 31 26 3
10 15 22 25 25 11 4 23 17 26 31 4 16 13 24 28 24 15 0 25 9 33 30 6 17 18 30
27 30 9 0 16 8 16 19 0 12 11 23 30 30 23 7 30 16 30 35 0 19 5 26 20 26 13 0
22 9 26 25 3 14 14 30 25 35 10 6 23 25 30 44 7 19 23 39 35 45 13 6 26 22 30
36 4 16 13 25 25 25 14 0 19 7 19 25 0 14 9 30 20 37 11 7 20 18 20 25 0 7 5
13 10 13 6 0 10 11 10 25 0 18 7 28 25 35 14 5 25 17 25 28 0 11 11 31 24 45
13 14 27 40 31 58 4 18 15 33 25 36 12 3 23 22 31 54 9 36 18 49 31 49 13 0
18 8 18 26 0 31 17 65 42 82 10 8 18 25 18 42 0 38 9 60 26 60 13 0 34 57 34
92 0 9 9 20 20 23 15 5 20 15 20 45 0 47 8 70 25 70 15 0 31 43 41 109 5 29
13 45 24 48 14 4 18 20 23 76 3 43 10 75 18 81 25 20 39 66 39 131 0 51 4 68
20 83 16 15 22 41 31 133 7 67 18 123 27 137 8 12 16 52 18 90 15 287 27 449
36 459 11 13 8 194 -3 203 -9 7 -18 113 -24 295 -6 147 -18 232 -37 245 -4 3
-12 55 -18 115 -13 132 -18 155 -35 155 -8 0 -14 25 -18 79 -4 65 -10 86 -31
114 -19 25 -26 46 -26 79 0 44 -23 108 -40 108 -4 0 -11 25 -15 56 -5 43 -11
57 -25 61 -13 3 -21 18 -25 46 -13 85 -17 100 -35 104 -13 4 -20 19 -25 55 -5
38 -12 52 -26 55 -10 3 -19 13 -19 22 0 41 -22 91 -39 91 -14 0 -20 10 -24 42
-3 24 -14 48 -25 57 -11 9 -25 33 -32 54 -6 20 -18 37 -26 37 -7 0 -16 12 -20
28 -10 47 -13 52 -32 52 -14 0 -21 11 -28 48 -7 37 -13 46 -27 44 -12 -2 -19
6 -24 28 -4 20 -14 35 -28 40 -17 6 -25 20 -30 50 -5 30 -13 44 -30 50 -13 5
-25 19 -27 32 -2 15 -11 24 -25 26 -14 2 -23 10 -23 21 0 30 -32 52 -45 31z"/>
<path d="M1257 6743 c-4 -3 -7 -15 -7 -25 0 -14 6 -19 23 -16 29 4 38 48 9 48
-10 0 -22 -3 -25 -7z"/>
<path d="M1209 6683 c-1 -5 -1 -11 0 -15 0 -4 -4 -19 -9 -32 -6 -17 -6 -27 2
-32 14 -9 40 26 34 43 -3 7 -1 13 4 13 6 0 10 7 10 15 0 15 -39 22 -41 8z"/>
<path d="M2181 5833 c-35 -2 -73 -10 -85 -17 -21 -14 -180 -36 -258 -36 -31 0
-46 -5 -55 -18 -8 -15 -29 -21 -85 -26 -40 -3 -77 -12 -83 -19 -16 -20 -63
-37 -100 -37 -21 0 -41 -8 -53 -20 -24 -26 -102 -40 -221 -40 -85 0 -98 -2
-109 -20 -7 -11 -21 -20 -32 -20 -13 0 -20 -7 -20 -20 0 -11 -9 -29 -20 -40
-12 -12 -25 -33 -31 -48 -12 -32 -16 -229 -5 -288 6 -37 12 -43 46 -54 22 -7
40 -21 43 -31 3 -11 14 -19 24 -19 38 0 43 -19 43 -166 0 -132 2 -144 20 -157
18 -12 22 -31 29 -132 6 -84 13 -122 23 -129 16 -12 27 -48 34 -111 10 -84 15
-105 28 -105 9 0 18 -26 26 -79 9 -60 16 -80 30 -84 12 -3 19 -18 23 -52 3
-33 12 -53 26 -64 13 -10 24 -34 29 -61 6 -36 12 -46 30 -48 16 -2 22 -10 22
-27 0 -35 20 -73 41 -78 13 -3 19 -14 19 -31 0 -19 5 -26 20 -26 12 0 20 -7
20 -17 1 -21 23 -53 36 -53 9 0 27 -28 40 -62 3 -10 12 -18 18 -18 7 0 25 -13
41 -30 15 -16 43 -34 61 -40 17 -6 34 -20 37 -30 3 -13 14 -20 30 -20 16 0 28
-7 31 -18 4 -11 24 -23 52 -30 25 -7 62 -24 82 -37 26 -18 50 -25 84 -25 27 0
48 -4 48 -9 0 -16 54 -31 150 -41 112 -12 139 -17 203 -37 63 -20 314 -14 367
10 19 8 92 20 162 27 101 10 131 16 144 31 10 12 31 19 51 19 37 0 66 12 98
40 11 10 37 21 58 24 21 4 43 16 50 26 6 11 22 20 35 20 15 0 26 7 29 19 3 11
22 27 44 35 21 9 49 27 61 41 12 14 30 25 40 25 10 0 18 7 18 15 0 9 11 21 25
27 14 6 25 19 25 28 0 21 20 40 42 40 12 0 18 7 18 21 0 12 8 23 20 26 12 3
28 24 39 49 11 24 24 44 29 44 6 0 15 13 20 29 6 16 19 32 31 36 15 4 22 18
27 52 4 31 12 47 24 50 11 3 22 23 30 59 9 36 19 56 32 59 14 5 18 16 18 51 0
42 10 70 38 105 7 9 15 47 19 85 3 38 12 76 20 86 8 9 21 47 29 85 8 37 19 70
24 71 11 4 40 67 40 87 0 7 15 29 33 49 l33 36 82 -10 c46 -5 86 -12 91 -14 5
-3 11 -19 15 -36 3 -17 17 -41 31 -54 16 -15 25 -34 25 -54 0 -32 18 -82 30
-82 13 0 30 -51 30 -90 0 -21 9 -54 19 -72 11 -18 25 -64 32 -103 7 -44 18
-74 29 -82 10 -7 20 -32 24 -62 5 -35 11 -50 24 -53 11 -3 23 -23 31 -56 9
-31 21 -52 31 -55 11 -3 19 -19 24 -46 5 -31 13 -44 31 -53 16 -7 25 -19 25
-35 0 -14 6 -23 15 -23 8 0 21 -12 29 -27 8 -16 24 -35 35 -43 12 -8 21 -20
21 -27 0 -7 11 -15 24 -19 15 -3 27 -15 30 -30 4 -13 13 -24 21 -24 8 0 22
-11 30 -24 9 -13 27 -27 41 -30 15 -4 24 -14 24 -26 0 -15 7 -20 26 -20 17 0
28 -6 31 -19 5 -20 42 -41 74 -41 12 0 23 -8 26 -19 3 -14 21 -24 56 -33 32
-8 52 -19 55 -30 3 -12 18 -19 51 -23 25 -3 54 -10 63 -16 10 -5 24 -9 32 -9
8 0 16 -4 18 -9 2 -6 53 -15 113 -21 61 -7 128 -18 150 -26 22 -8 100 -17 175
-20 108 -5 148 -3 200 11 36 9 119 23 185 32 88 11 125 20 141 34 13 12 35 19
61 19 43 0 79 14 106 42 9 9 35 19 57 23 24 4 44 14 50 26 6 10 19 19 30 19
10 0 25 8 32 18 16 21 52 42 73 42 9 0 20 11 25 25 5 14 20 27 35 31 15 4 25
13 25 25 0 11 9 21 24 25 17 4 27 15 31 35 4 16 13 29 21 29 7 0 23 20 34 44
11 25 29 47 40 51 13 4 20 15 20 30 0 15 7 26 20 30 11 3 20 15 20 25 0 10 5
22 10 25 6 3 10 17 10 30 0 14 7 26 19 30 13 4 21 19 26 51 3 25 13 48 21 51
14 5 28 48 39 114 3 21 12 42 20 49 7 6 19 45 26 87 7 44 18 77 26 80 7 3 13
13 13 23 0 11 4 21 9 24 4 3 11 37 13 75 3 43 12 81 23 97 16 25 22 65 41 302
4 43 10 62 19 62 10 0 15 16 17 53 3 46 6 52 27 55 13 2 26 12 28 23 3 10 14
21 24 24 11 4 26 22 34 41 8 19 20 34 28 34 18 0 27 43 27 130 0 90 -9 132
-31 137 -10 3 -20 19 -24 41 -9 48 -22 72 -40 72 -8 0 -20 8 -27 18 -11 17
-32 20 -161 24 -139 6 -149 7 -182 32 -18 14 -45 26 -58 26 -31 0 -87 20 -87
31 0 12 -68 29 -117 29 -24 0 -43 3 -43 8 0 13 -53 32 -89 32 -57 0 -207 27
-232 42 -19 10 -97 12 -379 11 -318 -3 -360 -5 -410 -22 -34 -12 -100 -22
-175 -26 -77 -5 -136 -14 -165 -25 -25 -10 -81 -23 -125 -29 -44 -5 -99 -19
-122 -31 -23 -11 -62 -20 -86 -20 -28 0 -62 -9 -92 -26 -27 -14 -71 -28 -98
-31 -27 -3 -56 -14 -66 -23 -9 -9 -47 -22 -86 -29 -38 -7 -90 -22 -115 -34
-41 -20 -64 -22 -280 -25 -251 -4 -412 8 -439 32 -9 8 -50 20 -91 27 -41 7
-86 20 -100 29 -14 10 -49 21 -77 25 -29 4 -56 11 -59 16 -10 17 -76 39 -115
39 -22 0 -60 11 -87 24 -33 17 -72 27 -131 32 -49 4 -98 14 -115 24 -22 12
-77 21 -196 30 -91 6 -183 19 -205 26 -30 11 -107 16 -310 18 -148 2 -299 1
-334 -1z m866 -374 c87 -8 140 -18 165 -30 25 -13 59 -19 100 -19 61 0 91 -8
170 -43 21 -10 56 -17 79 -17 28 0 47 -6 58 -19 9 -10 36 -22 60 -26 30 -5 45
-13 48 -26 3 -10 9 -19 13 -19 5 0 27 -17 49 -39 33 -32 41 -47 47 -90 4 -28
10 -51 13 -51 40 0 42 -480 2 -575 -5 -11 -13 -71 -19 -134 -8 -89 -15 -120
-31 -142 -13 -18 -21 -43 -21 -69 0 -42 -23 -100 -40 -100 -5 0 -12 -22 -16
-50 -5 -38 -11 -50 -24 -50 -12 0 -20 -11 -24 -31 -4 -19 -13 -33 -26 -36 -10
-3 -22 -13 -25 -22 -7 -20 -62 -81 -73 -81 -5 0 -21 -14 -35 -30 -15 -17 -36
-30 -47 -30 -13 0 -20 -7 -20 -20 0 -12 -7 -20 -17 -20 -36 0 -93 -21 -93 -34
0 -13 -94 -36 -144 -36 -9 0 -36 -10 -59 -22 -41 -22 -50 -22 -407 -22 -343 0
-367 1 -400 19 -19 11 -70 25 -113 31 -54 8 -85 18 -101 33 -12 12 -42 24 -69
27 -33 5 -48 12 -52 25 -4 11 -12 19 -19 19 -23 0 -66 25 -72 42 -3 9 -14 20
-25 23 -10 4 -24 16 -31 28 -6 12 -19 28 -28 34 -10 7 -25 30 -33 52 -9 22
-25 42 -36 46 -13 4 -22 19 -26 45 -4 22 -15 46 -24 53 -11 7 -21 32 -25 59
-4 26 -13 53 -19 60 -22 22 -37 93 -37 168 0 40 -10 123 -21 184 -17 89 -20
133 -16 219 3 62 11 115 18 123 7 8 14 48 17 90 2 41 9 77 13 80 5 3 9 14 9
25 0 10 6 19 14 19 17 0 26 22 26 61 0 19 8 34 25 45 14 9 25 23 25 31 0 13
19 33 105 112 11 10 37 21 59 24 21 4 47 15 58 27 10 11 20 20 21 21 1 0 40 4
86 8 58 6 88 13 96 24 9 12 43 18 146 25 195 13 599 14 746 1z m3315 1 c148
-10 218 -23 218 -39 0 -5 35 -11 78 -13 62 -5 86 -11 116 -32 21 -14 47 -26
58 -26 21 0 53 -17 80 -42 10 -10 25 -18 33 -18 9 0 15 -9 15 -25 0 -18 5 -25
19 -25 19 0 41 -43 41 -80 0 -10 8 -20 18 -22 13 -4 21 -23 31 -74 8 -41 22
-76 33 -85 17 -15 18 -37 18 -321 0 -280 -2 -307 -18 -329 -12 -15 -23 -57
-30 -113 -9 -69 -16 -92 -31 -103 -13 -9 -21 -27 -23 -56 -2 -32 -8 -44 -25
-52 -16 -7 -24 -21 -29 -51 -4 -31 -12 -45 -30 -53 -14 -6 -24 -19 -24 -31 0
-14 -7 -20 -21 -20 -14 0 -24 -10 -32 -30 -6 -16 -19 -30 -28 -30 -8 0 -21
-11 -27 -25 -6 -14 -20 -25 -30 -25 -10 0 -30 -10 -45 -22 -15 -12 -51 -28
-79 -35 -28 -7 -56 -20 -62 -28 -6 -8 -44 -20 -88 -27 -43 -6 -78 -15 -78 -20
0 -4 -8 -8 -18 -8 -10 0 -24 -6 -30 -12 -18 -18 -736 -18 -754 0 -7 7 -20 12
-30 12 -10 0 -18 4 -18 8 0 5 -37 13 -82 19 -45 6 -84 16 -86 22 -5 14 -67 41
-93 41 -11 0 -19 5 -19 11 0 5 -22 19 -49 31 -28 11 -51 28 -54 38 -3 10 -15
20 -28 22 -15 2 -25 12 -29 28 -4 16 -14 26 -28 28 -14 2 -22 10 -22 22 0 11
-11 27 -24 35 -16 11 -27 30 -31 57 -5 26 -13 42 -24 45 -11 3 -22 23 -31 56
-12 50 -28 86 -41 97 -3 3 -9 37 -13 75 -4 39 -13 79 -20 90 -30 45 -36 129
-36 466 0 352 2 366 43 397 9 7 17 21 17 31 0 10 11 23 25 29 14 6 25 16 25
22 0 11 64 40 89 40 9 0 21 8 28 18 8 14 29 21 74 26 34 3 72 12 83 19 31 20
108 37 168 37 34 0 67 7 90 20 27 14 70 22 155 28 170 13 526 14 705 2z"/>
<path d="M3066 5275 c-11 -8 -34 -18 -52 -21 -19 -3 -40 -16 -49 -30 -8 -13
-24 -24 -35 -24 -11 0 -20 -4 -20 -10 0 -5 -13 -22 -30 -37 -16 -14 -30 -32
-30 -38 0 -7 -11 -17 -25 -23 -16 -7 -25 -20 -25 -34 0 -12 -9 -31 -20 -43
-12 -13 -26 -48 -32 -83 -7 -36 -17 -62 -24 -62 -20 0 -24 -38 -24 -256 0
-165 3 -219 15 -247 8 -20 19 -38 24 -41 5 -3 12 -26 15 -51 5 -29 14 -49 27
-55 10 -6 19 -19 19 -30 0 -31 20 -65 43 -75 12 -6 23 -20 25 -32 2 -15 10
-23 23 -23 11 0 23 -10 29 -24 7 -19 19 -26 54 -31 32 -5 47 -13 51 -26 9 -28
149 -27 185 1 14 11 34 20 46 20 27 0 154 117 154 141 0 12 7 19 20 19 13 0
20 7 20 20 0 26 28 82 46 93 9 5 14 26 14 57 0 27 5 52 10 55 6 3 10 15 10 25
0 10 6 20 13 22 16 6 18 365 1 376 -17 11 -34 71 -34 118 0 32 -4 44 -18 48
-12 4 -23 25 -32 56 -9 31 -20 52 -32 56 -10 3 -18 14 -18 25 0 12 -10 23 -25
29 -14 5 -30 21 -35 35 -6 15 -17 25 -30 25 -13 0 -20 7 -20 20 0 14 -11 22
-37 29 -21 6 -46 11 -56 11 -10 0 -20 7 -23 15 -8 20 -92 20 -118 0z"/>
<path d="M5452 5260 c-34 -10 -76 -30 -93 -44 -17 -14 -36 -26 -44 -26 -7 0
-16 -11 -19 -25 -4 -14 -13 -25 -22 -25 -9 0 -24 -20 -37 -50 -11 -27 -27 -50
-34 -50 -7 0 -13 -8 -13 -17 0 -29 -26 -94 -40 -103 -8 -5 -17 -49 -24 -116
-19 -193 -6 -445 25 -479 9 -11 23 -41 29 -66 6 -25 22 -58 36 -74 13 -15 24
-36 24 -45 0 -10 10 -20 24 -24 14 -3 26 -16 30 -31 4 -15 13 -25 25 -25 10 0
23 -11 29 -24 8 -17 22 -26 50 -31 21 -3 45 -15 52 -26 21 -28 151 -28 182 1
12 11 37 23 56 26 22 4 36 14 39 25 3 11 16 22 29 25 13 3 26 15 30 26 3 10
17 24 30 30 13 6 24 19 24 29 0 10 9 23 19 29 12 6 22 26 26 50 4 23 16 49 27
60 15 14 22 38 28 97 5 43 16 102 25 130 20 61 16 167 -8 258 -9 33 -16 81
-17 106 0 32 -6 51 -19 63 -11 10 -23 32 -26 50 -4 17 -18 48 -31 69 -14 21
-29 49 -34 62 -6 15 -17 25 -30 25 -13 0 -22 9 -26 25 -3 14 -12 25 -20 25 -7
0 -23 11 -36 24 -14 15 -52 32 -99 45 -87 24 -85 24 -167 1z"/>
<path d="M1030 5040 c-8 -11 -20 -20 -27 -20 -9 0 -13 -15 -13 -45 0 -34 4
-45 15 -45 9 0 20 -11 25 -24 5 -13 14 -27 20 -31 25 -15 32 13 25 99 -8 89
-18 104 -45 66z"/>
<path d="M7626 5024 c-10 -27 -7 -44 9 -44 8 0 15 6 15 14 0 8 3 21 6 30 4 10
1 16 -9 16 -8 0 -18 -7 -21 -16z"/>
<path d="M2482 3000 c-7 -11 -21 -20 -32 -20 -17 0 -20 -7 -20 -49 0 -39 4
-51 18 -55 12 -4 23 -24 32 -55 9 -32 20 -51 32 -54 10 -3 18 -14 18 -26 0
-13 10 -26 24 -32 14 -7 27 -22 30 -34 3 -13 21 -39 38 -58 64 -69 88 -97 88
-106 0 -5 11 -12 25 -15 16 -4 25 -13 25 -25 0 -12 11 -23 30 -30 17 -5 30
-15 30 -21 0 -5 20 -20 45 -32 25 -12 45 -28 45 -35 0 -8 13 -16 29 -19 20 -4
31 -13 33 -27 2 -14 14 -24 38 -30 19 -4 45 -19 58 -33 13 -13 30 -24 38 -24
8 0 30 -11 48 -25 18 -14 45 -25 59 -25 15 0 27 -4 27 -9 0 -13 81 -51 108
-51 12 0 31 -9 42 -20 11 -11 40 -22 69 -26 37 -5 52 -12 56 -25 8 -23 41 -25
49 -3 3 9 6 78 6 154 0 129 1 139 19 145 11 3 23 15 26 26 6 19 13 20 108 16
56 -2 131 -11 167 -20 41 -10 109 -16 186 -17 122 0 144 -6 144 -40 0 -10 14
-20 40 -26 44 -12 60 -4 60 33 0 16 8 27 25 33 14 5 25 16 25 24 0 16 -116 36
-166 29 -17 -3 -48 1 -70 7 -44 14 -130 26 -282 38 -67 6 -108 14 -120 24 -20
18 -106 38 -163 38 -24 0 -50 8 -67 20 -15 11 -56 25 -92 31 -36 7 -67 15 -70
19 -11 15 -70 40 -96 40 -15 0 -37 8 -48 19 -12 10 -43 24 -69 31 -27 7 -51
19 -54 26 -3 8 -24 19 -47 25 -22 6 -45 16 -51 23 -15 19 -51 36 -75 36 -13 0
-24 8 -27 19 -3 12 -17 23 -34 26 -16 4 -43 20 -60 36 -17 16 -39 29 -49 29
-10 0 -22 9 -25 21 -4 11 -18 24 -32 30 -14 5 -27 18 -30 29 -3 11 -14 20 -24
20 -10 0 -21 5 -24 10 -3 6 -17 10 -31 10 -13 0 -24 5 -24 10 0 18 -45 10 -58
-10z"/>
<path d="M6050 3009 c0 -5 -16 -17 -35 -25 -19 -8 -35 -21 -35 -29 0 -8 -9
-15 -20 -15 -11 0 -20 -4 -20 -10 0 -5 -6 -10 -14 -10 -8 0 -21 -8 -28 -19 -7
-10 -23 -21 -36 -25 -12 -4 -26 -16 -32 -25 -5 -10 -30 -25 -54 -32 -27 -8
-47 -20 -49 -31 -3 -11 -14 -18 -27 -18 -13 0 -30 -8 -39 -17 -21 -23 -57 -43
-75 -43 -9 0 -32 -11 -52 -25 -20 -14 -43 -25 -51 -25 -15 0 -73 -29 -83 -41
-3 -3 -25 -9 -51 -13 -25 -4 -52 -15 -61 -25 -10 -12 -42 -24 -87 -32 -39 -6
-71 -16 -71 -21 0 -4 -9 -8 -19 -8 -11 0 -22 -4 -25 -9 -3 -4 -40 -11 -83 -14
-69 -5 -80 -9 -100 -33 -20 -26 -29 -28 -137 -37 -64 -6 -116 -14 -116 -19 0
-4 65 -8 143 -8 155 0 195 -10 220 -53 7 -14 12 -71 13 -157 1 -74 2 -145 3
-157 1 -27 26 -31 39 -7 10 18 74 44 108 44 11 0 30 9 42 20 12 11 30 20 41
20 31 0 74 19 88 40 10 14 26 20 52 20 30 0 42 6 55 25 11 17 29 27 56 31 25
4 41 13 45 24 3 10 19 20 34 23 16 4 32 14 35 24 3 10 24 26 45 35 22 10 45
27 51 38 6 11 19 20 29 20 12 0 21 10 25 25 5 18 13 25 31 25 18 0 26 7 31 24
3 15 14 26 27 28 14 2 23 11 25 25 2 14 11 23 25 25 14 2 23 11 25 26 2 13 14
27 27 32 14 5 27 20 31 34 3 13 14 26 25 29 11 3 19 14 19 26 0 12 5 21 10 21
6 0 10 8 10 18 0 9 10 22 23 27 12 6 23 20 25 33 2 12 12 26 22 32 13 7 22 31
30 78 12 66 12 70 -10 95 -18 21 -33 27 -62 27 -21 0 -38 -5 -38 -11z"/>
<path d="M4502 2380 c-50 -12 -48 -17 12 -30 63 -13 136 1 136 25 0 12 -13 15
-57 14 -32 -1 -73 -5 -91 -9z"/>
<path d="M3590 1932 c0 -7 4 -12 9 -12 4 0 12 -27 15 -61 6 -48 11 -62 26 -66
10 -3 23 -17 28 -32 15 -40 111 -131 140 -131 14 0 26 -7 29 -18 5 -20 66 -42
118 -42 19 0 35 -4 35 -9 0 -14 58 -31 106 -31 33 0 47 5 56 20 7 11 23 20 35
20 12 0 25 5 28 10 13 21 165 0 165 -22 0 -5 9 -8 19 -8 11 0 23 -4 26 -10 11
-18 117 -12 153 10 18 11 44 20 57 20 47 0 115 24 121 42 3 12 15 18 35 18 27
0 69 29 69 49 0 5 9 11 20 14 11 3 20 12 20 21 0 9 5 16 10 16 6 0 10 9 10 19
0 11 8 26 18 33 11 7 22 27 26 43 4 17 10 40 13 53 5 19 1 22 -25 22 -26 0
-31 -4 -34 -27 -2 -22 -9 -29 -30 -31 -20 -2 -28 -9 -28 -23 0 -11 -7 -19 -16
-19 -19 0 -76 -31 -87 -47 -4 -6 -37 -14 -75 -18 -62 -6 -89 -13 -134 -36 -10
-5 -60 -9 -111 -9 -91 0 -94 1 -105 25 -7 14 -12 36 -12 48 0 13 -4 27 -9 32
-6 6 -11 33 -13 60 l-4 50 -8 -52 c-5 -29 -12 -53 -17 -53 -5 0 -9 -6 -9 -13
0 -8 -11 -24 -25 -37 -14 -13 -25 -32 -25 -42 0 -20 -18 -22 -135 -19 -43 2
-64 7 -75 20 -11 12 -37 20 -85 24 -47 5 -74 12 -82 23 -14 19 -59 44 -78 44
-8 0 -17 9 -20 20 -3 11 -17 23 -31 26 -15 4 -24 13 -24 25 0 12 -11 24 -27
31 -16 7 -36 18 -45 26 -12 10 -18 11 -18 4z"/>
</g>
</svg>
